<?xml version="1.0" encoding="UTF-8"?>
<svg width="207px" height="207px" viewBox="0 0 207 207" version="1.1" xmlns="http://www.w3.org/2000/svg" xmlns:xlink="http://www.w3.org/1999/xlink">
    <!-- Generator: Sketch 42 (36781) - http://www.bohemiancoding.com/sketch -->
    <title>bar-chart</title>
    <desc>Created with Sketch.</desc>
    <defs></defs>
    <g id="Page-2" stroke="none" stroke-width="1" fill="none" fill-rule="evenodd">
        <g id="bar-chart" fill-rule="nonzero">
            <g id="decreaseanalysis">
                <g id="Group" transform="translate(0.000000, 36.000000)" fill="#1C71DA">
                    <rect id="Rectangle-path" x="0" y="114.0496" width="8" height="56"></rect>
                    <rect id="Rectangle-path" x="16" y="78.0496" width="8" height="92"></rect>
                    <rect id="Rectangle-path" x="32" y="70.0496" width="8" height="99.6367"></rect>
                    <rect id="Rectangle-path" x="48" y="58.0496" width="8" height="111.6367"></rect>
                    <rect id="Rectangle-path" x="64" y="34.0496" width="8" height="136"></rect>
                    <rect id="Rectangle-path" x="80" y="30.0496" width="8" height="140"></rect>
                    <rect id="Rectangle-path" x="96" y="45.9792" width="8" height="124.0703"></rect>
                    <rect id="Rectangle-path" x="112" y="62.0476" width="8" height="107.5586"></rect>
                    <rect id="Rectangle-path" x="128" y="70.0476" width="8" height="99.5586"></rect>
                    <rect id="Rectangle-path" x="144" y="114.0496" width="8" height="56"></rect>
                    <rect id="Rectangle-path" x="160" y="98.0496" width="8" height="72"></rect>
                    <rect id="Rectangle-path" x="176" y="109.8562" width="8" height="60.1934"></rect>
                    <path d="M188.7812,26.5593 C188.5117,24.3659 186.5156,22.8366 184.3222,23.0769 C182.1308,23.3464 180.5702,25.3425 180.8398,27.5359 L184.1364,54.3728 L115.752,0.9441 L110.8262,7.2488 L174.1387,56.7146 L157.3848,58.7703 C155.1934,59.0398 153.6328,61.0359 153.9024,63.2273 C154.1524,65.2546 155.877,66.741 157.8672,66.741 C158.0313,66.741 158.1953,66.7312 158.3594,66.7117 L189.2168,62.9246 C190.2695,62.7957 191.2266,62.2527 191.8809,61.4168 C192.5332,60.5809 192.8282,59.5203 192.6993,58.4656 L188.7812,26.5593 Z" id="Shape"></path>
                </g>
                <path d="M20.2524,30.6257 C19.2285,30.6257 18.205,30.2351 17.4238,29.4543 C15.8618,27.8918 15.8618,25.3591 17.4238,23.7971 L31.5659,9.6555 C33.1289,8.094 35.6611,8.0945 37.2231,9.6555 C38.7851,11.218 38.7851,13.7507 37.2231,15.3127 L23.0811,29.4543 C22.2998,30.2351 21.2759,30.6257 20.2524,30.6257 Z" id="Shape" fill="#FF5D5D"></path>
                <path d="M34.3945,30.6277 C33.3706,30.6277 32.3471,30.2371 31.5659,29.4563 L17.4238,15.3137 C15.8618,13.7512 15.8618,11.2185 17.4238,9.6565 C18.9873,8.095 21.5195,8.0955 23.081,9.6565 L37.2231,23.7991 C38.7851,25.3616 38.7851,27.8943 37.2231,29.4563 C36.4419,30.2371 35.418,30.6277 34.3945,30.6277 Z" id="Shape" fill="#FF5D5D"></path>
                <path d="M82.2524,38.6257 C74.5327,38.6257 68.2524,32.3454 68.2524,24.6257 C68.2524,16.906 74.5327,10.6257 82.2524,10.6257 C89.9721,10.6257 96.2524,16.906 96.2524,24.6257 C96.2524,32.3454 89.9722,38.6257 82.2524,38.6257 Z M82.2524,18.6257 C78.9438,18.6257 76.2524,21.3171 76.2524,24.6257 C76.2524,27.9343 78.9438,30.6257 82.2524,30.6257 C85.561,30.6257 88.2524,27.9343 88.2524,24.6257 C88.2524,21.3171 85.561,18.6257 82.2524,18.6257 Z" id="Shape" fill="#00D40B"></path>
                <path d="M191.5659,30.6267 C190.542,30.6267 189.5185,30.2361 188.7373,29.4553 L177.4238,18.1418 C175.8618,16.5793 175.8618,14.0471 177.4238,12.4846 L188.7373,1.1711 C190.2998,-0.3904 192.8325,-0.3904 194.394,1.1711 L205.708,12.4846 C206.4585,13.2351 206.8799,14.2522 206.8799,15.3132 C206.8799,16.3742 206.4585,17.3913 205.708,18.1418 L194.394,29.4553 C193.6133,30.2361 192.5894,30.6267 191.5659,30.6267 Z M185.9092,15.3132 L191.5659,20.9699 L197.2231,15.3132 L191.5659,9.6565 L185.9092,15.3132 Z" id="Shape" fill="#FFC504"></path>
            </g>
        </g>
    </g>
</svg>