<?xml version="1.0" encoding="UTF-8"?>
<svg width="231px" height="231px" viewBox="0 0 231 231" version="1.1" xmlns="http://www.w3.org/2000/svg" xmlns:xlink="http://www.w3.org/1999/xlink">
    <!-- Generator: Sketch 42 (36781) - http://www.bohemiancoding.com/sketch -->
    <title>cloud-computing-8</title>
    <desc>Created with Sketch.</desc>
    <defs></defs>
    <g id="Page-2" stroke="none" stroke-width="1" fill="none" fill-rule="evenodd">
        <g id="cloud-computing-8" fill-rule="nonzero">
            <g id="cloudtarget">
                <g id="Group">
                    <path d="M129.5039,101.3789 L125.5547,103.9277 L123.668,99.6269 C120.5703,92.5645 113.5547,88 105.793,88 C96.1563,88 87.8633,95.123 86.5078,104.5703 L86,108.0898 L82.4453,108 C73.4141,108 66.1797,115.1777 66.1797,124 C66.1797,132.8223 73.4141,140 82.3086,140 L141.0195,140 C152.6875,140 162.1797,130.5801 162.1797,119 C162.1797,107.4199 152.6875,98 141.0195,98 C136.9102,98 132.9258,99.168 129.5039,101.3789 Z" id="Shape" fill="#5CB0FF"></path>
                    <path d="M128.9453,92.5957 C123.9453,84.8281 115.2617,80 105.793,80 C93.3282,80 82.4532,88.4766 79.2578,100.1914 C67.3906,101.6855 58.1797,111.793 58.1797,124 C58.1797,137.2344 69.0039,148 82.3086,148 L141.0195,148 C157.0976,148 170.1797,134.9902 170.1797,119 C170.1797,103.0098 157.0977,90 141.0195,90 C136.8203,90 132.7148,90.8887 128.9453,92.5957 Z M162.1797,119 C162.1797,130.5801 152.6875,140 141.0195,140 L82.3086,140 C73.4141,140 66.1797,132.8223 66.1797,124 C66.1797,115.1777 73.4141,108 82.4453,108 L86,108.0898 L86.5078,104.5703 C87.8633,95.123 96.1562,88 105.793,88 C113.5547,88 120.5703,92.5645 123.668,99.627 L125.5547,103.9278 L129.5039,101.379 C132.9258,99.168 136.9102,98 141.0195,98 C152.6875,98 162.1797,107.4199 162.1797,119 Z" id="Shape" fill="#1C71DA"></path>
                    <path d="M221.957,124.0762 C219.7461,123.8301 217.7851,125.418 217.539,127.6094 C212.246,175.2852 173.8163,213.8535 126.1562,219.3164 C123.9648,219.5684 122.3867,221.5527 122.6406,223.7461 C122.875,225.7871 124.6015,227.291 126.6094,227.291 C126.7617,227.291 126.9141,227.2832 127.0703,227.2656 C178.3984,221.3808 219.7891,179.8418 225.4922,128.4922 C225.7344,126.2969 224.1523,124.3184 221.957,124.0762 Z" id="Shape" fill="#1C71DA"></path>
                    <path d="M126.1055,12.6758 C174.0899,18.1504 212.5703,56.9883 217.6094,105.0215 C217.8242,107.0762 219.5586,108.6035 221.5821,108.6035 C221.7188,108.6035 221.8633,108.5957 222.004,108.582 C224.1993,108.3515 225.7931,106.3828 225.5626,104.1855 C220.1407,52.4531 178.6915,10.625 127.0118,4.7265 C124.7813,4.4687 122.8321,6.0566 122.586,8.248 C122.332,10.4434 123.9102,12.4258 126.1055,12.6758 Z" id="Shape" fill="#1C71DA"></path>
                    <path d="M102.6797,219.3711 C54.8945,214.1172 16.2774,175.6367 10.8477,127.875 C10.6016,125.6816 8.6875,124.0879 6.4219,124.3516 C4.2266,124.6016 2.6524,126.5821 2.9024,128.7774 C8.7462,180.2208 50.3399,221.6641 101.8047,227.3243 C101.9531,227.3399 102.1016,227.3477 102.2461,227.3477 C104.2617,227.3477 105.9922,225.8321 106.2188,223.7852 C106.4609,221.5898 104.875,219.6133 102.6797,219.3711 Z" id="Shape" fill="#1C71DA"></path>
                    <path d="M6.4023,107.9805 C6.5507,107.9961 6.6992,108.0039 6.8437,108.0039 C8.8554,108.0039 10.5898,106.4902 10.8164,104.4434 C16.125,56.3965 54.8633,17.7715 102.9258,12.5996 C105.1211,12.3633 106.711,10.3926 106.4727,8.1953 C106.2383,6.0019 104.3516,4.4101 102.0665,4.6465 C50.3047,10.2148 8.582,51.8164 2.8633,103.5645 C2.6211,105.7598 4.2031,107.7363 6.4023,107.9805 Z" id="Shape" fill="#1C71DA"></path>
                    <path d="M42.1797,120 C44.3906,120 46.1797,118.209 46.1797,116 C46.1797,113.791 44.3906,112 42.1797,112 L4,112 C1.7891,112 0,113.791 0,116 C0,118.209 1.7891,120 4,120 L42.1797,120 Z" id="Shape" fill="#1C71DA"></path>
                    <path d="M226.1797,112 L188,112 C185.7891,112 184,113.791 184,116 C184,118.209 185.7891,120 188,120 L226.1797,120 C228.3906,120 230.1797,118.209 230.1797,116 C230.1797,113.791 228.3906,112 226.1797,112 Z" id="Shape" fill="#1C71DA"></path>
                    <path d="M114.1797,46.1816 C116.3906,46.1816 118.1797,44.3906 118.1797,42.1816 L118.1797,4 C118.1797,1.791 116.3906,0 114.1797,0 C111.9688,0 110.1797,1.791 110.1797,4 L110.1797,42.1816 C110.1797,44.3906 111.9688,46.1816 114.1797,46.1816 Z" id="Shape" fill="#1C71DA"></path>
                    <path d="M114.1797,184 C111.9688,184 110.1797,185.791 110.1797,188 L110.1797,226.1816 C110.1797,228.3906 111.9688,230.1816 114.1797,230.1816 C116.3906,230.1816 118.1797,228.3906 118.1797,226.1816 L118.1797,188 C118.1797,185.791 116.3906,184 114.1797,184 Z" id="Shape" fill="#1C71DA"></path>
                </g>
                <path d="M138.4316,63.8237 C137.4082,63.8237 136.3847,63.4331 135.6035,62.6523 C134.041,61.0898 134.041,58.5571 135.6035,56.9951 L149.7461,42.853 C151.3066,41.2915 153.8399,41.2915 155.4023,42.853 C156.9648,44.4155 156.9648,46.9482 155.4023,48.5102 L141.2597,62.6523 C140.4795,63.4331 139.4551,63.8237 138.4316,63.8237 Z" id="Shape" fill="#FF5D5D"></path>
                <path d="M152.5742,63.8223 C151.5508,63.8223 150.5263,63.4317 149.7461,62.6509 L135.6035,48.5083 C134.041,46.9458 134.041,44.4136 135.6035,42.8511 C137.164,41.2896 139.6992,41.2896 141.2597,42.8511 L155.4023,56.9937 C156.9648,58.5562 156.9648,61.0884 155.4023,62.6509 C154.6221,63.4316 153.5977,63.8223 152.5742,63.8223 Z" id="Shape" fill="#FF5D5D"></path>
                <path d="M80.4316,191.8237 C72.7119,191.8237 66.4316,185.5434 66.4316,177.8237 C66.4316,170.104 72.7119,163.8237 80.4316,163.8237 C88.1513,163.8237 94.4316,170.104 94.4316,177.8237 C94.4316,185.5434 88.1514,191.8237 80.4316,191.8237 Z M80.4316,171.8237 C77.123,171.8237 74.4316,174.5151 74.4316,177.8237 C74.4316,181.1323 77.123,183.8237 80.4316,183.8237 C83.7402,183.8237 86.4316,181.1323 86.4316,177.8237 C86.4316,174.5151 83.7402,171.8237 80.4316,171.8237 Z" id="Shape" fill="#00D40B"></path>
                <path d="M57.7461,78.4492 C56.7227,78.4492 55.6992,78.0586 54.918,77.2778 L43.6035,65.9644 C42.8535,65.2144 42.4316,64.1968 42.4316,63.1358 C42.4316,62.0748 42.8535,61.0572 43.6035,60.3072 L54.918,48.9937 C56.4805,47.4322 59.0118,47.4322 60.5742,48.9937 L71.8877,60.3072 C73.4502,61.8697 73.4502,64.4019 71.8877,65.9644 L60.5742,77.2778 C59.7939,78.0586 58.7695,78.4492 57.7461,78.4492 Z M52.0889,63.1357 L57.7461,68.7924 L63.4023,63.1357 L57.7461,57.479 L52.0889,63.1357 Z" id="Shape" fill="#FFC504"></path>
            </g>
        </g>
    </g>
</svg>