<?xml version="1.0" encoding="UTF-8"?>
<svg width="207px" height="211px" viewBox="0 0 207 211" version="1.1" xmlns="http://www.w3.org/2000/svg" xmlns:xlink="http://www.w3.org/1999/xlink">
    <!-- Generator: Sketch 42 (36781) - http://www.bohemiancoding.com/sketch -->
    <title>cpu</title>
    <desc>Created with Sketch.</desc>
    <defs></defs>
    <g id="Page-2" stroke="none" stroke-width="1" fill="none" fill-rule="evenodd">
        <g id="cpu" fill-rule="nonzero">
            <g id="cpuusage">
                <g id="Group" transform="translate(18.000000, 9.000000)">
                    <path d="M11.0739,47.7714 L74.2848,92.6542 C78.2575,95.4784 85.234,95.4784 89.2106,92.6542 L152.4215,47.7714 C153.8102,46.787 154.5992,45.6737 154.5387,44.7909 C154.4762,43.91 153.5387,42.9179 152.0309,42.1386 L90.5621,10.3769 C88.2144,9.164 84.982,8.5585 81.7476,8.5585 C78.5152,8.5585 75.2808,9.164 72.9331,10.3769 L11.4645,42.1385 C9.9625,42.9158 9.029,43.908 8.9665,44.7947 C8.9039,45.6776 9.691,46.7909 11.0739,47.7714 Z" id="Shape" fill="#5CB0FF"></path>
                    <path d="M6.441,54.2948 L69.6519,99.1776 C73.0445,101.5858 77.3941,102.7889 81.7476,102.7889 C86.0992,102.7889 90.4507,101.5838 93.8433,99.1776 L157.0523,54.2948 C160.7886,51.6444 162.7808,47.9745 162.5191,44.2303 C162.2554,40.4862 159.7711,37.1346 155.7027,35.033 L94.234,3.2714 C87.236,-0.3497 76.2633,-0.3497 69.2613,3.2714 L7.7926,35.0331 C3.7301,37.1327 1.2496,40.4862 0.986,44.2343 C0.7223,47.9784 2.7125,51.6464 6.441,54.2948 Z M11.4645,42.1385 L72.9333,10.3768 C75.281,9.1639 78.5153,8.5584 81.7478,8.5584 C84.9822,8.5584 88.2146,9.1639 90.5623,10.3768 L152.0311,42.1385 C153.5389,42.9178 154.4764,43.91 154.5389,44.7908 C154.5994,45.6736 153.8104,46.7869 152.4217,47.7713 L89.2108,92.6541 C85.2342,95.4783 78.2577,95.4783 74.285,92.6541 L11.0739,47.7714 C9.6911,46.7909 8.904,45.6776 8.9665,44.7948 C9.0289,43.9081 9.9625,42.9159 11.4645,42.1385 Z" id="Shape" fill="#1C71DA"></path>
                    <path d="M155.7028,67.0331 L152.0309,74.1386 C153.5387,74.9179 154.4762,75.9101 154.5387,76.7909 C154.5992,77.6737 153.8102,78.787 152.4215,79.7714 L89.2106,124.6542 C85.234,127.4784 78.2575,127.4784 74.2848,124.6542 L11.0739,79.7714 C9.6911,78.7909 8.904,77.6776 8.9665,76.7948 C9.029,75.9081 9.9626,74.9159 11.4645,74.1386 L7.7926,67.0331 C3.7301,69.1327 1.2496,72.4862 0.986,76.2343 C0.7223,79.9784 2.7126,83.6464 6.4411,86.2948 L69.652,131.1776 C73.0446,133.5858 77.3942,134.7889 81.7477,134.7889 C86.0993,134.7889 90.4508,133.5838 93.8434,131.1776 L157.0524,86.2948 C160.7887,83.6444 162.7809,79.9745 162.5192,76.2303 C162.2555,72.4862 159.7711,69.1346 155.7028,67.0331 Z" id="Shape" fill="#1C71DA"></path>
                    <path d="M155.7028,99.0331 L152.0309,106.1386 C153.5387,106.9179 154.4762,107.9101 154.5387,108.7909 C154.5992,109.6737 153.8102,110.787 152.4215,111.7714 L89.2106,156.6542 C85.234,159.4784 78.2575,159.4784 74.2848,156.6542 L11.0739,111.7714 C9.6911,110.7909 8.904,109.6776 8.9665,108.7948 C9.029,107.9081 9.9626,106.9159 11.4645,106.1386 L7.7926,99.0331 C3.7301,101.1327 1.2496,104.4862 0.986,108.2343 C0.7223,111.9784 2.7126,115.6464 6.4411,118.2948 L69.652,163.1776 C73.0446,165.5858 77.3942,166.7889 81.7477,166.7889 C86.0993,166.7889 90.4508,165.5838 93.8434,163.1776 L157.0524,118.2948 C160.7887,115.6444 162.7809,111.9745 162.5192,108.2303 C162.2555,104.4862 159.7711,101.1346 155.7028,99.0331 Z" id="Shape" fill="#1C71DA"></path>
                    <path d="M155.7028,131.0331 L152.0309,138.1386 C153.5387,138.9179 154.4762,139.9101 154.5387,140.7909 C154.5992,141.6737 153.8102,142.787 152.4215,143.7714 L89.2106,188.6542 C85.234,191.4784 78.2575,191.4784 74.2848,188.6542 L11.0739,143.7714 C9.6911,142.7909 8.904,141.6776 8.9665,140.7948 C9.029,139.9081 9.9626,138.9159 11.4645,138.1386 L7.7926,131.0331 C3.7301,133.1327 1.2496,136.4862 0.986,140.2343 C0.7223,143.9784 2.7126,147.6464 6.4411,150.2948 L69.652,195.1776 C73.0446,197.5858 77.3942,198.7889 81.7477,198.7889 C86.0993,198.7889 90.4508,197.5838 93.8434,195.1776 L157.0524,150.2948 C160.7887,147.6444 162.7809,143.9745 162.5192,140.2303 C162.2555,136.4862 159.7711,133.1346 155.7028,131.0331 Z" id="Shape" fill="#1C71DA"></path>
                </g>
                <path d="M4.0001,22.1444 C2.9762,22.1444 1.9527,21.754 1.1715,20.9728 C-0.3905,19.4108 -0.3905,16.8781 1.1715,15.3161 L15.3136,1.1744 C16.8771,-0.3876 19.4093,-0.3876 20.9708,1.1744 C22.5328,2.7364 22.5328,5.2691 20.9708,6.8311 L6.8287,20.9728 C6.0475,21.7538 5.0236,22.1444 4.0001,22.1444 Z" id="Shape" fill="#FF5D5D"></path>
                <path d="M18.1422,22.1425 C17.1183,22.1425 16.0948,21.7521 15.3136,20.9709 L1.1715,6.8282 C-0.3905,5.2662 -0.3905,2.7335 1.1715,1.1715 C2.735,-0.3905 5.2672,-0.3905 6.8287,1.1715 L20.9708,15.3141 C22.5328,16.8761 22.5328,19.4088 20.9708,20.9708 C20.1896,21.7518 19.1656,22.1425 18.1422,22.1425 Z" id="Shape" fill="#FF5D5D"></path>
                <path d="M182.0001,210.1444 C174.2804,210.1444 168.0001,203.8641 168.0001,196.1444 C168.0001,188.4247 174.2804,182.1444 182.0001,182.1444 C189.7198,182.1444 196.0001,188.4247 196.0001,196.1444 C196.0001,203.8641 189.7198,210.1444 182.0001,210.1444 Z M182.0001,190.1444 C178.6915,190.1444 176.0001,192.8361 176.0001,196.1444 C176.0001,199.4527 178.6915,202.1444 182.0001,202.1444 C185.3087,202.1444 188.0001,199.4527 188.0001,196.1444 C188.0001,192.8361 185.3087,190.1444 182.0001,190.1444 Z" id="Shape" fill="#00D40B"></path>
                <path d="M191.3136,44.7694 C190.2897,44.7694 189.2662,44.379 188.485,43.5978 L177.1715,32.2843 C175.6095,30.7223 175.6095,28.1896 177.1715,26.6276 L188.485,15.3141 C190.0475,13.7521 192.5802,13.7516 194.1417,15.3141 L205.4557,26.6276 C206.2062,27.3776 206.6276,28.3952 206.6276,29.456 C206.6276,30.5168 206.2062,31.5344 205.4557,32.2844 L194.1417,43.5979 C193.361,44.3788 192.337,44.7694 191.3136,44.7694 Z M185.6569,29.4559 L191.3136,35.1126 L196.9708,29.4559 L191.3136,23.7992 L185.6569,29.4559 Z" id="Shape" fill="#FFC504"></path>
            </g>
        </g>
    </g>
</svg>